<svg width="43" height="43" viewBox="0 0 43 43" fill="none" xmlns="http://www.w3.org/2000/svg">
<circle cx="21.5" cy="21.5" r="21.5" fill="white"/>
<path d="M5 16H5.77273L10.2557 26.6136H10.3352L14.8182 16H15.5909V27.6364H14.9091V17.6875H14.8409L10.6307 27.6364H9.96023L5.75 17.6875H5.68182V27.6364H5V16Z" fill="#242F5F"/>
<path d="M18.5043 27.6364H17.7543L21.9531 16H22.7713L26.9702 27.6364H26.2202L22.3906 16.9148H22.3338L18.5043 27.6364ZM19.5668 23.2557H25.1577V23.9148H19.5668V23.2557Z" fill="#242F5F"/>
<path d="M28.6918 27.6364H27.9418L32.1406 16H32.9588L37.1577 27.6364H36.4077L32.5781 16.9148H32.5213L28.6918 27.6364ZM29.7543 23.2557H35.3452V23.9148H29.7543V23.2557Z" fill="#242F5F"/>
</svg>
